<svg width="22" height="19" viewBox="0 0 22 19" fill="none" xmlns="http://www.w3.org/2000/svg">
<path d="M19.0733 1.34502C18.84 0.656687 18.1867 0.166687 17.4167 0.166687H4.58333C3.81333 0.166687 3.17167 0.656687 2.92667 1.34502L0.5 8.33335V17.6667C0.5 18.3084 1.025 18.8334 1.66667 18.8334H2.83333C3.475 18.8334 4 18.3084 4 17.6667V16.5H18V17.6667C18 18.3084 18.525 18.8334 19.1667 18.8334H20.3333C20.975 18.8334 21.5 18.3084 21.5 17.6667V8.33335L19.0733 1.34502ZM4.99167 2.50002H16.9967L18.2567 6.12835H3.73167L4.99167 2.50002ZM19.1667 14.1667H2.83333V8.33335H19.1667V14.1667Z" fill="white"/>
<path d="M5.75 13C6.7165 13 7.5 12.2165 7.5 11.25C7.5 10.2835 6.7165 9.50003 5.75 9.50003C4.7835 9.50003 4 10.2835 4 11.25C4 12.2165 4.7835 13 5.75 13Z" fill="white"/>
<path d="M16.25 13C17.2165 13 18 12.2165 18 11.25C18 10.2835 17.2165 9.50003 16.25 9.50003C15.2835 9.50003 14.5 10.2835 14.5 11.25C14.5 12.2165 15.2835 13 16.25 13Z" fill="white"/>
</svg>
